<svg xmlns="http://www.w3.org/2000/svg" width="37.131" viewBox="0 0 55.449 495.658" height="38.723"><defs><filter height="1.048" width="1.048" y="-.024" x="-.024" id="A" color-interpolation-filters="sRGB"><feGaussianBlur stdDeviation="4.48"></feGaussianBlur></filter></defs><path d="M335.6 307.1c-5.5-2.8-32.8-16.2-37.9-18-5.1-1.9-8.8-2.8-12.5 2.8s-14.3 18-17.6 21.8c-3.2 3.7-6.5 4.2-12 1.4-32.6-16.3-54-29.1-75.5-66-5.7-9.8 5.7-9.1 16.3-30.3 1.8-3.7.9-6.9-.5-9.7s-12.5-30.1-17.1-41.2c-4.5-10.8-9.1-9.3-12.5-9.5-3.2-.2-6.9-.2-10.6-.2s-9.7 1.4-14.8 6.9c-5.1 5.6-19.4 19-19.4 46.3s19.9 53.7 22.6 57.4c2.8 3.7 39.1 59.7 94.8 83.8 35.2 15.2 49 16.5 66.6 13.9 10.7-1.6 32.8-13.4 37.4-26.4s4.6-24.1 3.2-26.4c-1.3-2.5-5-3.9-10.5-6.6zM234.4 38.6c-122.4 0-222 99.6-222 222 0 39.1 10.2 77.3 29.6 111l-31.5 115 117.7-30.9c32.4 17.7 68.902 27 106.1 27h.1c122.3 0 224.1-99.6 224.1-222 0-59.3-25.2-115-67.1-157s-97.7-65.1-157-65.1zm.1 37.5a187.89 187.89 0 0 1 18.33.893 184.77 184.77 0 0 1 17.949 2.652 183.3 183.3 0 0 1 17.47 4.37c5.733 1.737 11.367 3.756 16.9 6.047a181.57 181.57 0 0 1 16.21 7.682c5.278 2.83 10.427 5.925 15.43 9.28s9.858 6.967 14.55 10.832a187.37 187.37 0 0 1 13.572 12.344 205.73 205.73 0 0 1 12.406 13.605c3.915 4.702 7.606 9.567 11.055 14.576a194.45 194.45 0 0 1 9.607 15.447c2.95 5.284 5.647 10.696 8.068 16.22a182.15 182.15 0 0 1 6.432 16.896 176.66 176.66 0 0 1 4.701 17.473 172.5 172.5 0 0 1 2.875 17.951 170.05 170.05 0 0 1 .955 18.33 181.27 181.27 0 0 1-.98 18.85 180.14 180.14 0 0 1-2.869 18.311 180.17 180.17 0 0 1-4.658 17.678 181.38 181.38 0 0 1-6.35 16.953 183.43 183.43 0 0 1-7.94 16.133 185.41 185.41 0 0 1-9.432 15.221c-3.38 4.9-6.994 9.655-10.822 14.215a188.74 188.74 0 0 1-12.113 13.115 189.52 189.52 0 0 1-13.307 11.924 189.68 189.68 0 0 1-14.398 10.635 188.79 188.79 0 0 1-15.389 9.256c-5.285 2.845-10.718 5.445-16.283 7.783A189.48 189.48 0 0 1 289.386 437c-5.814 1.8-11.74 3.323-17.768 4.555s-12.153 2.17-18.36 2.803a185.85 185.85 0 0 1-18.855.953 185.6 185.6 0 0 1-12.41-.414 185.36 185.36 0 0 1-12.305-1.238 183.78 183.78 0 0 1-12.156-2.05 184.54 184.54 0 0 1-11.967-2.848c-3.953-1.08-7.87-2.295-11.738-3.637a183.45 183.45 0 0 1-11.467-4.41 182.52 182.52 0 0 1-11.154-5.176c-3.662-1.85-7.265-3.828-10.803-5.928l-6.7-4-69.8 18.3 18.6-68.102-4.4-7a182.99 182.99 0 0 1-6.523-11.23 183.26 183.26 0 0 1-5.687-11.609c-1.755-3.93-3.37-7.916-4.842-11.95a182.58 182.58 0 0 1-3.984-12.248 183.88 183.88 0 0 1-3.117-12.506 185.38 185.38 0 0 1-2.24-12.723 186.02 186.02 0 0 1-1.352-12.9 187.45 187.45 0 0 1-.453-13.033 185.66 185.66 0 0 1 .955-18.832 183.5 183.5 0 0 1 2.801-18.295 182.77 182.77 0 0 1 4.557-17.664 183.03 183.03 0 0 1 6.215-16.941 183.88 183.88 0 0 1 7.783-16.125c2.845-5.228 5.935-10.302 9.256-15.2a185.57 185.57 0 0 1 10.637-14.209c3.765-4.558 7.744-8.933 11.922-13.1s8.555-8.156 13.115-11.92a185.73 185.73 0 0 1 14.215-10.63c4.91-3.32 10-6.4 15.22-9.254a183.89 183.89 0 0 1 16.133-7.781 183.23 183.23 0 0 1 16.953-6.215c5.777-1.8 11.674-3.325 17.678-4.557a183.8 183.8 0 0 1 18.311-2.801 186.37 186.37 0 0 1 18.85-.955z" transform="matrix(1.0123 0 0 1.0102 -209.65975 -6.766599)" fill="gray" filter="url(#A)"></path><path d="M27.78 67.803a186.02 186.02 0 0 0-18.85.955 183.81 183.81 0 0 0-18.31 2.8c-6.003 1.23-11.9 2.756-17.678 4.557s-11.434 3.877-16.953 6.215a184.03 184.03 0 0 0-16.133 7.781 186.38 186.38 0 0 0-15.22 9.254c-4.92 3.32-9.655 6.867-14.215 10.63a186.17 186.17 0 0 0-13.115 11.92 186.35 186.35 0 0 0-11.922 13.109c-3.765 4.558-7.316 9.3-10.637 14.2s-6.4 9.983-9.256 15.2a183.88 183.88 0 0 0-7.783 16.125c-2.338 5.516-4.414 11.17-6.215 16.94a182.8 182.8 0 0 0-4.557 17.664 183.6 183.6 0 0 0-2.8 18.295c-.63 6.193-.956 12.478-.956 18.835a187.45 187.45 0 0 0 .453 13.033 184.66 184.66 0 0 0 1.352 12.9 184.81 184.81 0 0 0 2.24 12.723 183.84 183.84 0 0 0 3.117 12.506 183.21 183.21 0 0 0 3.984 12.248 182.91 182.91 0 0 0 4.842 11.951c1.755 3.93 3.652 7.8 5.688 11.6a183.59 183.59 0 0 0 6.523 11.23l4.4 7-18.6 68.102 69.8-18.3 6.7 4a181.99 181.99 0 0 0 10.803 5.928 184.01 184.01 0 0 0 11.154 5.176 183.42 183.42 0 0 0 11.467 4.41 184.08 184.08 0 0 0 11.738 3.637c3.953 1.08 7.944 2.03 11.967 2.848a184.96 184.96 0 0 0 12.156 2.049 185.35 185.35 0 0 0 12.305 1.238 185.61 185.61 0 0 0 12.41.414 186.34 186.34 0 0 0 18.855-.953 184.51 184.51 0 0 0 18.36-2.803c6.026-1.233 11.955-2.754 17.768-4.555s11.5-3.878 17.076-6.217a187.81 187.81 0 0 0 16.283-7.783c5.284-2.845 10.418-5.935 15.4-9.256s9.776-6.87 14.398-10.635a189.97 189.97 0 0 0 13.307-11.924c4.243-4.178 8.285-8.555 12.113-13.115a187.59 187.59 0 0 0 10.822-14.215 185.44 185.44 0 0 0 9.432-15.221 183.57 183.57 0 0 0 7.94-16.133 181.18 181.18 0 0 0 6.35-16.953 180.12 180.12 0 0 0 4.658-17.678 180.05 180.05 0 0 0 2.869-18.311 181.62 181.62 0 0 0 .979-18.85c.012-6.162-.312-12.278-.955-18.33s-1.607-12.042-2.875-17.95a176.95 176.95 0 0 0-4.7-17.473 179.24 179.24 0 0 0-6.432-16.896 188.28 188.28 0 0 0-8.068-16.221 193.97 193.97 0 0 0-9.607-15.447c-3.45-5.01-7.14-9.874-11.055-14.576a205.43 205.43 0 0 0-12.406-13.605 187.71 187.71 0 0 0-13.572-12.344 184.47 184.47 0 0 0-14.551-10.832 182.56 182.56 0 0 0-15.43-9.28 181.67 181.67 0 0 0-16.211-7.682 181.98 181.98 0 0 0-16.89-6.047 182.73 182.73 0 0 0-17.469-4.371 184.35 184.35 0 0 0-17.95-2.652 187.92 187.92 0 0 0-18.33-.893z" fill="#189d0e"></path><path d="M128.88 298.803c-5.5-2.8-32.8-16.2-37.9-18-5.1-1.9-8.8-2.8-12.5 2.8s-14.3 18-17.6 21.8c-3.2 3.7-6.5 4.2-12 1.4-32.6-16.3-54-29.1-75.5-66-5.7-9.8 5.7-9.1 16.3-30.3 1.8-3.7.9-6.9-.5-9.7s-12.5-30.1-17.1-41.2c-4.5-10.8-9.1-9.3-12.5-9.5-3.2-.2-6.9-.2-10.6-.2s-9.7 1.4-14.8 6.9c-5.1 5.6-19.4 19-19.4 46.3s19.9 53.7 22.6 57.4c2.8 3.7 39.1 59.7 94.8 83.8 35.2 15.2 49 16.5 66.6 13.9 10.7-1.6 32.8-13.4 37.4-26.4s4.6-24.1 3.2-26.4c-1.3-2.5-5-3.9-10.5-6.6zm-101.2-268.5c-122.4 0-222 99.6-222 222 0 39.1 10.2 77.3 29.6 111l-31.5 115 117.7-30.9c32.4 17.7 68.902 27 106.1 27h.1c122.3 0 224.1-99.6 224.1-222 0-59.3-25.2-115-67.1-157s-97.7-65.1-157-65.1zm.1 37.5a187.89 187.89 0 0 1 18.33.893 184.77 184.77 0 0 1 17.949 2.652 183.3 183.3 0 0 1 17.47 4.37c5.733 1.737 11.367 3.756 16.9 6.047a181.57 181.57 0 0 1 16.21 7.682c5.278 2.83 10.427 5.925 15.43 9.28s9.858 6.967 14.55 10.832a187.37 187.37 0 0 1 13.572 12.344 205.73 205.73 0 0 1 12.406 13.605c3.915 4.702 7.606 9.567 11.055 14.576a194.45 194.45 0 0 1 9.607 15.447c2.95 5.284 5.647 10.696 8.068 16.22a182.15 182.15 0 0 1 6.432 16.896 176.66 176.66 0 0 1 4.701 17.473 172.5 172.5 0 0 1 2.875 17.951 170.05 170.05 0 0 1 .955 18.33 181.27 181.27 0 0 1-.98 18.85 180.14 180.14 0 0 1-2.869 18.311 180.17 180.17 0 0 1-4.658 17.678 181.38 181.38 0 0 1-6.35 16.953 183.43 183.43 0 0 1-7.94 16.133 185.41 185.41 0 0 1-9.432 15.221c-3.38 4.9-6.994 9.655-10.822 14.215a188.74 188.74 0 0 1-12.113 13.115 189.52 189.52 0 0 1-13.307 11.924 189.68 189.68 0 0 1-14.398 10.635 188.79 188.79 0 0 1-15.389 9.256c-5.285 2.845-10.718 5.445-16.283 7.783s-11.263 4.416-17.076 6.217-11.74 3.323-17.768 4.555-12.153 2.17-18.36 2.803a185.85 185.85 0 0 1-18.855.953 185.6 185.6 0 0 1-12.41-.414 185.36 185.36 0 0 1-12.305-1.238 183.78 183.78 0 0 1-12.156-2.05 184.54 184.54 0 0 1-11.967-2.848c-3.953-1.08-7.87-2.295-11.738-3.637a183.45 183.45 0 0 1-11.467-4.41 182.52 182.52 0 0 1-11.154-5.176 182.09 182.09 0 0 1-10.801-5.927l-6.7-4-69.8 18.3 18.6-68.102-4.4-7a182.99 182.99 0 0 1-6.523-11.23 183.26 183.26 0 0 1-5.687-11.609c-1.755-3.93-3.37-7.916-4.842-11.95a182.58 182.58 0 0 1-3.984-12.248 183.88 183.88 0 0 1-3.117-12.506 185.38 185.38 0 0 1-2.24-12.723 186.02 186.02 0 0 1-1.352-12.9 187.45 187.45 0 0 1-.453-13.033 185.66 185.66 0 0 1 .955-18.832 183.5 183.5 0 0 1 2.801-18.295 182.77 182.77 0 0 1 4.557-17.664 183.03 183.03 0 0 1 6.215-16.941 183.88 183.88 0 0 1 7.783-16.125c2.845-5.228 5.935-10.302 9.256-15.2a185.57 185.57 0 0 1 10.637-14.209c3.765-4.558 7.744-8.933 11.922-13.1s8.555-8.156 13.115-11.92 9.304-7.3 14.215-10.63a186.55 186.55 0 0 1 15.22-9.254 183.89 183.89 0 0 1 16.133-7.781 183.23 183.23 0 0 1 16.953-6.215c5.777-1.8 11.674-3.325 17.678-4.557a183.8 183.8 0 0 1 18.311-2.801 186.37 186.37 0 0 1 18.85-.955z" fill="#fff"></path><circle r="81.054" cy="81.054" cx="170.132" fill="red" paint-order="stroke fill markers"></circle><path d="M145.853 123.5v-9.45h22.176V47.1l-19.644 14.023v-10.5l20.57-14.146h10.254v77.583h21.187v9.45z" fill="#fff"></path></svg>
